# xmcd
#
# Track frame offsets:
#	183
#	12718
#	33338
#	50143
#	63873
#	82828
#	98018
#	109655
#	126025
#	138915
#	155003
#	169175
#	182188
#	197015
#
# Disc length: 2785 seconds
#
# Revision: 0
# Processed by: cddbd v1.5.1PL2 Copyright (c) Steve Scherf et al.
# Submitted via: dBpowerAMP V4.0
#
DISCID=b90adf0e
DTITLE=Billie Jo Spears - The collection
DYEAR=1900
DGENRE=Country
TTITLE0=What I'v'e got in mind
TTITLE1=Ode to billie Jo
TTITLE2=Bridge over troubled water
TTITLE3=Yesterday
TTITLE4=Everything is beautiful
TTITLE5=I will survive
TTITLE6=Stand by your man
TTITLE7=Blanket on the ground
TTITLE8=Rose garden
TTITLE9=I fall to pieces
TTITLE10=Desperado
TTITLE11=57 chevrolet
TTITLE12=Hurt
TTITLE13=Misty blue
EXTD=geert
EXTT0=
EXTT1=
EXTT2=
EXTT3=
EXTT4=
EXTT5=
EXTT6=
EXTT7=
EXTT8=
EXTT9=
EXTT10=
EXTT11=
EXTT12=
EXTT13=
PLAYORDER=
